<svg width="23" height="23" viewBox="0 0 23 23" fill="none" xmlns="http://www.w3.org/2000/svg">
<g clip-path="url(#clip0_196_1954)">
<path d="M20.8438 12.5781H3.59375V4.49218C3.59292 4.18767 3.65249 3.88601 3.76903 3.60468C3.88556 3.32335 4.05674 3.06793 4.27265 2.8532L4.29062 2.83523C4.629 2.49735 5.06345 2.27218 5.53461 2.19047C6.00576 2.10877 6.49066 2.17452 6.92305 2.37874C6.51469 3.05768 6.34496 3.85363 6.44082 4.64009C6.53669 5.42656 6.89265 6.15843 7.45214 6.7194L7.94407 7.21134L7.03858 8.11688L8.05499 9.13328L8.96048 8.22779L13.9778 3.2106L14.8832 2.30511L13.8668 1.28866L12.9613 2.19415L12.4693 1.70221C11.8803 1.11487 11.1039 0.752817 10.2754 0.679133C9.4469 0.60545 8.61879 0.824813 7.9354 1.299C7.21478 0.843898 6.36079 0.647429 5.51373 0.741864C4.66668 0.836298 3.87693 1.21602 3.27422 1.81865L3.25625 1.83662C2.90642 2.18454 2.62907 2.59839 2.44025 3.05422C2.25144 3.51004 2.15491 3.99879 2.15625 4.49218V12.5781H0.71875V14.0156H2.15625V15.3947C2.15622 15.5106 2.17491 15.6257 2.21159 15.7356L3.54883 19.7472C3.62019 19.9619 3.75741 20.1487 3.941 20.2811C4.12459 20.4134 4.34521 20.4846 4.57152 20.4844H5.15101L4.62695 22.2812H6.12433L6.64844 20.4844H15.9967L16.5357 22.2812H18.0361L17.4971 20.4844H18.4283C18.6546 20.4846 18.8753 20.4135 19.0589 20.2811C19.2426 20.1488 19.3798 19.9619 19.4512 19.7472L20.7883 15.7356C20.825 15.6257 20.8437 15.5106 20.8438 15.3947V14.0156H22.2812V12.5781H20.8438ZM8.46867 2.71866C8.8647 2.32349 9.40131 2.10156 9.96077 2.10156C10.5202 2.10156 11.0568 2.32349 11.4529 2.71866L11.9447 3.2106L8.96061 6.19472L8.46867 5.70287C8.07353 5.30683 7.85161 4.77022 7.85161 4.21076C7.85161 3.65131 8.07353 3.1147 8.46867 2.71866ZM19.4062 15.3363L18.1695 19.0469H4.83054L3.59375 15.3363V14.0156H19.4062V15.3363Z" fill="black"/>
</g>
<defs>
<clipPath id="clip0_196_1954">
<rect width="23" height="23" fill="white"/>
</clipPath>
</defs>
</svg>
