<svg width="23" height="23" viewBox="0 0 23 23" fill="none" xmlns="http://www.w3.org/2000/svg">
<path d="M21.1582 14.8242V18.5078H23V12.9824H1.8418V5.43555C1.8418 5.19584 1.75195 4.97874 1.57227 4.78418C1.39258 4.58953 1.17547 4.49219 0.920898 4.49219C0.666326 4.49219 0.449219 4.58953 0.269531 4.78418C0.0898438 4.97883 0 5.19598 0 5.43555V18.5078H1.8418V14.8242H21.1582Z" fill="#010002"/>
<path d="M4.73926 9.20898C5.20344 9.20898 5.60773 9.04426 5.95215 8.71484C6.29656 8.38539 6.46875 7.98855 6.46875 7.52441C6.46875 7.06015 6.29656 6.66335 5.95215 6.33398C5.60773 6.00457 5.20344 5.83984 4.73926 5.83984C4.27508 5.83984 3.87824 6.00457 3.54883 6.33398C3.21942 6.6634 3.05469 7.06024 3.05469 7.52441C3.05469 7.98859 3.21942 8.38543 3.54883 8.71484C3.87824 9.04426 4.27508 9.20898 4.73926 9.20898Z" fill="#010002"/>
<path d="M23 11.5898V9.34375C23 8.98438 22.8727 8.69238 22.6182 8.46777C22.3635 8.24316 22.0415 8.1009 21.6523 8.04102L8.31055 6.73828H8.2207C7.98113 6.73828 7.77899 6.82062 7.61426 6.98535C7.44953 7.15008 7.36719 7.35223 7.36719 7.5918V10.1973H3.95312C3.3841 10.1973 3.09961 10.4294 3.09961 10.8936C3.09961 11.3577 3.3841 11.5898 3.95312 11.5898H23Z" fill="#010002"/>
</svg>
