<svg width="28" height="30" viewBox="0 0 28 30" fill="none" xmlns="http://www.w3.org/2000/svg">
<g filter="url(#filter0_d_196_1926)">
<path d="M22 2H10C8.897 2 8 2.897 8 4V16C8 17.103 8.897 18 10 18H22C23.103 18 24 17.103 24 16V4C24 2.897 23.103 2 22 2ZM10 16V4H22L22.002 16H10Z" fill="white"/>
<path d="M6 8H4V20C4 21.103 4.897 22 6 22H18V20H6V8Z" fill="white"/>
<path d="M14 12L13 11L11 14H21L17 8L14 12Z" fill="white"/>
</g>
<defs>
<filter id="filter0_d_196_1926" x="-2" y="0" width="32" height="32" filterUnits="userSpaceOnUse" color-interpolation-filters="sRGB">
<feFlood flood-opacity="0" result="BackgroundImageFix"/>
<feColorMatrix in="SourceAlpha" type="matrix" values="0 0 0 0 0 0 0 0 0 0 0 0 0 0 0 0 0 0 127 0" result="hardAlpha"/>
<feOffset dy="4"/>
<feGaussianBlur stdDeviation="2"/>
<feComposite in2="hardAlpha" operator="out"/>
<feColorMatrix type="matrix" values="0 0 0 0 0 0 0 0 0 0 0 0 0 0 0 0 0 0 0.25 0"/>
<feBlend mode="normal" in2="BackgroundImageFix" result="effect1_dropShadow_196_1926"/>
<feBlend mode="normal" in="SourceGraphic" in2="effect1_dropShadow_196_1926" result="shape"/>
</filter>
</defs>
</svg>
