<svg width="26" height="25" viewBox="0 0 26 25" fill="none" xmlns="http://www.w3.org/2000/svg">
<path d="M18.4279 13.9675C18.2379 13.4375 17.9729 12.985 17.6304 12.6125C17.2904 12.24 16.8729 11.9275 16.3829 11.675C15.8929 11.4225 15.3454 11.1775 14.7454 10.94L13.3204 10.3925C13.0829 10.2975 12.8454 10.1975 12.6079 10.095C12.3704 9.9925 12.1579 9.865 11.9679 9.715C11.7779 9.565 11.6279 9.3825 11.5179 9.1675C11.4054 8.9525 11.3529 8.6875 11.3529 8.37C11.3529 7.975 11.4254 7.655 11.5679 7.4075C11.7104 7.1625 11.8904 6.9775 12.1154 6.85C12.3354 6.7225 12.5854 6.635 12.8629 6.59C13.1404 6.5425 13.4129 6.5175 13.6804 6.5175C14.1229 6.5175 14.5179 6.5375 14.8679 6.5775C15.2154 6.6175 15.5279 6.67 15.8054 6.7325C16.0829 6.795 16.3429 6.875 16.5879 6.97C16.8329 7.065 17.0754 7.16 17.3129 7.255C17.7254 6.37 17.9779 5.465 18.0729 4.55C17.2954 4.28 16.5579 4.075 15.8529 3.9325C15.4579 3.8525 15.0479 3.7975 14.6204 3.7625V1.5625H11.4079V3.9825C11.3329 4.0025 11.2579 4.0225 11.1854 4.045C10.4729 4.26 9.86537 4.5775 9.35787 4.995C8.85037 5.415 8.45787 5.9325 8.18287 6.55C7.90537 7.1675 7.76787 7.88 7.76787 8.6875C7.76787 9.3525 7.85037 9.9225 8.01787 10.395C8.18287 10.87 8.41787 11.2775 8.71787 11.6175C9.01787 11.96 9.38287 12.2525 9.81037 12.4975C10.2379 12.7425 10.7204 12.9675 11.2579 13.1725L12.7054 13.72C12.9904 13.8325 13.2679 13.945 13.5379 14.0625C13.8079 14.18 14.0479 14.3275 14.2629 14.5025C14.4779 14.6775 14.6504 14.89 14.7854 15.1425C14.9179 15.395 14.9854 15.7125 14.9854 16.0925C14.9854 16.8525 14.7004 17.4175 14.1304 17.79C13.5604 18.1625 12.7754 18.3475 11.7779 18.3475C11.1129 18.3475 10.4879 18.28 9.90287 18.145C9.31787 18.0125 8.69037 17.8075 8.02787 17.54C7.85287 18.0475 7.70287 18.5475 7.57787 19.0475C7.45037 19.545 7.36287 20.025 7.31787 20.485C7.71287 20.6425 8.09287 20.7775 8.45787 20.89C8.82037 21.0025 9.19037 21.0925 9.56287 21.1625C9.93537 21.235 10.3254 21.285 10.7379 21.3175C10.9479 21.3325 11.1729 21.345 11.4104 21.3525V23.4375H14.6204V21.06C14.7329 21.03 14.8429 20.9975 14.9504 20.9625C15.7654 20.6925 16.4504 20.3225 17.0054 19.8475C17.5579 19.3725 17.9829 18.8025 18.2754 18.1375C18.5679 17.4725 18.7154 16.7375 18.7154 15.93C18.7104 15.15 18.6179 14.5 18.4279 13.9675Z" fill="black"/>
</svg>
