<svg width="26" height="25" viewBox="0 0 26 25" fill="none" xmlns="http://www.w3.org/2000/svg">
<g clip-path="url(#clip0_196_101)">
<path d="M12.5155 22.9675C10.643 22.9675 8.77054 22.95 6.89804 22.9725C4.27554 23.0075 2.78804 20.92 2.88054 18.96C2.96554 17.15 2.90804 15.335 2.89054 13.525C2.88804 13.1225 2.98054 12.8825 3.37304 12.6775C6.28804 11.145 9.19054 9.58751 12.088 8.02001C12.413 7.84251 12.658 7.86001 12.9705 8.02751C15.8705 9.59001 18.7755 11.1475 21.688 12.685C22.048 12.8725 22.158 13.0875 22.1555 13.48C22.133 15.3525 22.1505 17.225 22.1455 19.0975C22.138 21.325 20.548 22.94 18.313 22.965C16.3805 22.985 14.448 22.9675 12.5155 22.9675ZM23.4305 11C23.1005 10.8725 22.7505 10.7775 22.438 10.6125C19.3305 8.96501 16.2255 7.31751 13.1355 5.63251C12.6655 5.37501 12.3305 5.41001 11.883 5.65251C8.75554 7.34501 5.61304 9.01251 2.47054 10.6825C1.39304 11.2525 0.315536 10.8 0.0580357 9.68751C-0.101964 8.99751 0.255536 8.33251 1.01804 7.92501C3.90804 6.37751 6.79554 4.83501 9.68804 3.29501C10.448 2.89001 11.198 2.45501 11.9955 2.13501C12.323 2.00251 12.823 2.00001 13.1305 2.16001C16.818 4.08251 20.488 6.04001 24.1555 8.00251C24.8755 8.38751 25.158 9.07251 24.958 9.77251C24.7505 10.5025 24.198 10.9275 23.4305 11Z" fill="black"/>
</g>
<defs>
<clipPath id="clip0_196_101">
<rect width="25" height="25" fill="white" transform="translate(0.0205078)"/>
</clipPath>
</defs>
</svg>
