<svg width="25" height="25" viewBox="0 0 25 25" fill="none" xmlns="http://www.w3.org/2000/svg">
<path d="M12.7352 0C15.8727 0 18.4152 2.545 18.4152 5.6825C18.4152 7.195 16.4627 11.93 12.5577 19.8875L11.8252 18.265C8.64273 11.1775 7.05273 6.985 7.05273 5.6825C7.05273 2.545 9.59773 0 12.7352 0ZM12.5577 2.84C10.9877 2.84 9.71523 4.1125 9.71523 5.6825C9.71523 7.25 10.9877 8.5225 12.5577 8.5225C14.1252 8.5225 15.3977 7.25 15.3977 5.6825C15.3977 4.1125 14.1252 2.84 12.5577 2.84Z" fill="black"/>
<path opacity="0.4" d="M23.5825 20.1375C23.5825 23.9525 16.7175 24.5225 12.625 24.5225C8.53248 24.5225 1.66748 23.9525 1.66748 20.1375C1.66748 17.2925 5.49498 16.2525 9.13748 15.91L9.75748 18.0775C6.33248 18.375 3.85748 19.18 3.85748 20.1375C3.85748 21.35 7.78248 22.33 12.625 22.33C17.4675 22.33 21.39 21.35 21.39 20.1375C21.39 19.18 18.92 18.375 15.4925 18.0775L16.1125 15.91C19.755 16.2525 23.5825 17.2925 23.5825 20.1375Z" fill="black"/>
</svg>
