<svg width="12" height="15" viewBox="0 0 12 15" fill="none" xmlns="http://www.w3.org/2000/svg">
<g clip-path="url(#clip0_196_711)">
<path d="M6.11285 0.22493C7.61885 0.22493 8.83925 1.70495 8.83925 3.52952C8.83925 4.4091 7.90205 7.16268 6.02765 11.7903L5.67605 10.8467C4.14845 6.72508 3.38525 4.28698 3.38525 3.52952C3.38525 1.70495 4.60685 0.22493 6.11285 0.22493ZM6.02765 1.8765C5.27405 1.8765 4.66325 2.61651 4.66325 3.52952C4.66325 4.44108 5.27405 5.18109 6.02765 5.18109C6.78005 5.18109 7.39085 4.44108 7.39085 3.52952C7.39085 2.61651 6.78005 1.8765 6.02765 1.8765Z" fill="black"/>
<path opacity="0.4" d="M11.3195 11.9357C11.3195 14.1542 8.02429 14.4857 6.05989 14.4857C4.09549 14.4857 0.800293 14.1542 0.800293 11.9357C0.800293 10.2812 2.63749 9.67638 4.38589 9.47721L4.68349 10.7377C3.03949 10.9107 1.85149 11.3788 1.85149 11.9357C1.85149 12.6408 3.73549 13.2107 6.05989 13.2107C8.38429 13.2107 10.2671 12.6408 10.2671 11.9357C10.2671 11.3788 9.08149 10.9107 7.43629 10.7377L7.73389 9.47721C9.48229 9.67638 11.3195 10.2812 11.3195 11.9357Z" fill="black"/>
</g>
<defs>
<clipPath id="clip0_196_711">
<rect width="12" height="14.5385" fill="white" transform="translate(0 0.22493)"/>
</clipPath>
</defs>
</svg>
