<svg width="23" height="23" viewBox="0 0 23 23" fill="none" xmlns="http://www.w3.org/2000/svg">
<path d="M9.58317 7.66667L6.46859 10.7812C6.76567 10.8962 7.00525 11.04 7.2065 11.155C7.56109 11.3754 7.77192 11.5 8.30859 11.5C8.84525 11.5 9.05609 11.3754 9.41067 11.155C9.8515 10.8962 10.4457 10.5417 11.5094 10.5417C12.5732 10.5417 13.1673 10.8962 13.5986 11.155C13.9532 11.3658 14.1736 11.5 14.7007 11.5C15.2278 11.5 15.4482 11.3754 15.8028 11.155C15.9178 11.0879 16.0519 11.0112 16.1957 10.9346L10.0432 4.79167L4.7915 2.875V5.27083L8.62484 6.70833L9.58317 7.66667ZM5.12692 14.8542C5.654 14.8542 5.87442 14.9883 6.229 15.1992C6.66025 15.4579 7.25442 15.8125 8.31817 15.8125C9.38192 15.8125 9.97609 15.4579 10.4073 15.1992C10.7619 14.9787 10.9728 14.8542 11.5094 14.8542C12.0365 14.8542 12.2569 14.9883 12.6115 15.1992C13.0428 15.4579 13.6369 15.8125 14.7007 15.8125C15.7644 15.8125 16.3586 15.4579 16.7898 15.1992C17.1444 14.9787 17.3553 14.8542 17.8919 14.8542C18.419 14.8542 18.6394 14.9883 18.994 15.1992C19.4253 15.4579 20.0098 15.8029 21.064 15.8125V13.8958C20.5369 13.8958 20.3165 13.7617 19.9619 13.5508C19.5307 13.2921 18.9365 12.9375 17.8728 12.9375C16.809 12.9375 16.2148 13.2921 15.7836 13.5508C15.429 13.7712 15.2086 13.8958 14.6815 13.8958C14.1544 13.8958 13.934 13.7617 13.5794 13.5508C13.1482 13.2921 12.554 12.9375 11.4903 12.9375C10.4265 12.9375 9.83234 13.2921 9.40109 13.5508C9.0465 13.7712 8.83567 13.8958 8.299 13.8958C7.77192 13.8958 7.5515 13.7617 7.19692 13.5508C6.76567 13.2921 6.1715 12.9375 5.10775 12.9375C4.044 12.9375 3.44984 13.2921 3.01859 13.5508C2.664 13.7712 2.45317 13.8958 1.9165 13.8958V15.8125C2.98025 15.8125 3.57442 15.4579 4.02484 15.1992C4.37942 14.9787 4.59984 14.8542 5.12692 14.8542ZM17.8919 17.25C16.8282 17.25 16.234 17.6046 15.8028 17.8633C15.4482 18.0837 15.2278 18.2083 14.7007 18.2083C14.1736 18.2083 13.9532 18.0742 13.5986 17.8633C13.1673 17.6046 12.5732 17.25 11.5094 17.25C10.4457 17.25 9.8515 17.6046 9.41067 17.8633C9.05609 18.0837 8.84525 18.2083 8.30859 18.2083C7.77192 18.2083 7.56109 18.0837 7.2065 17.8633C6.77525 17.6046 6.18109 17.25 5.11734 17.25C4.05359 17.25 3.45942 17.6046 3.01859 17.8633C2.664 18.0837 2.45317 18.2083 1.9165 18.2083V20.125C2.98025 20.125 3.57442 19.7704 4.01525 19.5117C4.36984 19.2913 4.59025 19.1667 5.11734 19.1667C5.64442 19.1667 5.86484 19.2913 6.21942 19.5117C6.65067 19.7704 7.24484 20.125 8.30859 20.125C9.37234 20.125 9.9665 19.7704 10.4073 19.5117C10.7619 19.2913 10.9728 19.1667 11.5094 19.1667C12.0365 19.1667 12.2569 19.3008 12.6115 19.5117C13.0428 19.7704 13.6369 20.125 14.7007 20.125C15.7644 20.125 16.349 19.7704 16.7898 19.5117C17.1444 19.2913 17.3553 19.1667 17.8919 19.1667C18.419 19.1667 18.6394 19.3008 18.994 19.5117C19.4253 19.7704 20.0194 20.125 21.0832 20.125V18.2083C20.5465 18.2083 20.3357 18.0837 19.9811 17.8633C19.5498 17.6046 18.9557 17.25 17.8919 17.25Z" fill="black"/>
<path d="M15.8123 7.66667C17.1355 7.66667 18.2082 6.59402 18.2082 5.27083C18.2082 3.94765 17.1355 2.875 15.8123 2.875C14.4892 2.875 13.4165 3.94765 13.4165 5.27083C13.4165 6.59402 14.4892 7.66667 15.8123 7.66667Z" fill="black"/>
</svg>
