<svg width="26" height="25" viewBox="0 0 26 25" fill="none" xmlns="http://www.w3.org/2000/svg">
<path d="M15.0821 1.83251C15.8771 2.62501 16.6495 3.39751 17.422 4.17001C17.5645 4.31251 17.567 4.54751 17.422 4.69001C15.7395 6.37251 14.0771 8.03751 12.4145 9.70251C12.062 10.055 12.062 10.2825 12.4145 10.635C13.1171 11.34 13.8221 12.045 14.5271 12.75C14.9021 13.1225 15.1245 13.125 15.497 12.7525C17.1195 11.13 18.742 9.50751 20.367 7.88501C20.4295 7.82251 20.497 7.76001 20.5646 7.70001C20.6745 7.60001 20.882 7.63501 21.0271 7.77751C21.7871 8.53001 22.5546 9.29001 23.3445 10.07C23.4895 10.2125 23.6045 10.1625 23.6045 9.96001V1.94251C23.6045 1.74001 23.4396 1.57501 23.2371 1.57501H15.1871C14.9846 1.57501 14.937 1.69001 15.0821 1.83251ZM10.6971 13.035C10.4396 12.7775 10.2795 12.7775 10.022 13.0375L6.35955 16.7C6.33205 16.7275 6.30955 16.755 6.28455 16.7875C6.24455 16.8375 6.09705 16.7625 5.94955 16.62L4.38455 15.0925C4.23955 14.95 4.12205 15 4.12205 15.2025V20.8C4.12205 21.0025 4.28705 21.1675 4.48955 21.1675H10.0571C10.2596 21.1675 10.3096 21.0475 10.1696 20.9025C9.66455 20.3775 9.17205 19.865 8.67955 19.3525C8.53955 19.205 8.54205 18.97 8.68455 18.8275C9.88955 17.6225 11.0821 16.43 12.2746 15.235C12.4945 15.0125 12.4921 14.8325 12.2696 14.6075C11.7471 14.0825 11.222 13.56 10.6971 13.035ZM22.4845 22.7H12.3146C9.17205 22.7075 6.03205 22.7075 2.87205 22.7075C2.66955 22.7075 2.50455 22.5425 2.50455 22.34V2.66751C2.50455 2.46501 2.66955 2.30001 2.87205 2.30001H12.6446C12.8471 2.30001 13.0121 2.13751 13.0121 1.93751C13.0121 1.73751 12.8471 1.57501 12.6421 1.57501H2.09455C1.89205 1.57501 1.72705 1.74001 1.72705 1.94251V23.0675C1.72705 23.27 1.89205 23.435 2.09455 23.435H23.2345C23.437 23.435 23.602 23.27 23.602 23.0675V12.5325C23.602 12.33 23.437 12.165 23.2345 12.165H23.2195C23.017 12.165 22.852 12.33 22.852 12.5325V22.335C22.852 22.5375 22.6895 22.7 22.4845 22.7Z" fill="black"/>
</svg>
