
        <svg xmlns="http://www.w3.org/2000/svg" xmlns:xlink="http://www.w3.org/1999/xlink" version="1.1" width="3192" height="3154.96318798359" viewBox="0 0 3192 3154.96318798359">
			
			<g transform="scale(9.6) translate(10, 10)">
				<defs id="SvgjsDefs5148"><linearGradient id="SvgjsLinearGradient5157"><stop id="SvgjsStop5158" stop-color="#8f5e25" offset="0"/><stop id="SvgjsStop5159" stop-color="#fbf4a1" offset="0.5"/><stop id="SvgjsStop5160" stop-color="#8f5e25" offset="1"/></linearGradient><linearGradient id="SvgjsLinearGradient5161"><stop id="SvgjsStop5162" stop-color="#8f5e25" offset="0"/><stop id="SvgjsStop5163" stop-color="#fbf4a1" offset="0.5"/><stop id="SvgjsStop5164" stop-color="#8f5e25" offset="1"/></linearGradient><linearGradient id="SvgjsLinearGradient5165"><stop id="SvgjsStop5166" stop-color="#8f5e25" offset="0"/><stop id="SvgjsStop5167" stop-color="#fbf4a1" offset="0.5"/><stop id="SvgjsStop5168" stop-color="#8f5e25" offset="1"/></linearGradient><linearGradient id="SvgjsLinearGradient5169"><stop id="SvgjsStop5170" stop-color="#b88746" offset="0"/><stop id="SvgjsStop5171" stop-color="#fdf5a6" offset="1"/></linearGradient></defs><g id="SvgjsG5149" featureKey="rootContainer" transform="matrix(2.962557282918362,0,0,2.962557282918362,-0.11114361282025892,0.08493720129761974)" fill="#fff"><path xmlns="http://www.w3.org/2000/svg" d="M104.6 41.3a52.2 52.2 0 0 0-3.5-11.2A51.1 51.1 0 0 0 44.3 1a49.6 49.6 0 0 0-5.7 1.5 49.1 49.1 0 0 0-7.9 2.7A51.6 51.6 0 0 0 6.3 77a53.7 53.7 0 0 0 4.1 6.4 57 57 0 0 0 5 5.7 51.7 51.7 0 0 0 55.3 11.5l3.3-1.4 3-1.5a50.9 50.9 0 0 0 5.8-3.8l2.7-2.1 1.2-1.1 1.1-.9 2-1.8.7-.6.6-.7 1.8-2a48.5 48.5 0 0 0 5.9-8.3 50.4 50.4 0 0 0 5.6-14.7 51.6 51.6 0 0 0 .2-20.4zM87.1 88.6l-1.2 1.1-1.2 1.1-2.6 2.1a49.5 49.5 0 0 1-5.7 3.6l-3 1.5-3.2 1.3-4.9 1.6h-.5a50.9 50.9 0 0 1-20.3.1 51.8 51.8 0 0 1-11.1-3.6A50.5 50.5 0 0 1 22.9 91a52 52 0 0 1-9.1-9.4 50.3 50.3 0 0 1-3.7-5.7c-.6-1-1.1-2-1.6-3.1s-1-2.1-1.3-3.2a50.6 50.6 0 0 1 8.6-50.8l.8-.8.5-.6.6-.6 1.2-1.1 2.4-2.1A50.5 50.5 0 0 1 62.4 3.2a48.5 48.5 0 0 1 14.7 5.2 47 47 0 0 1 8.3 5.8l2 1.8.7.6.6.7 1.8 2a49.7 49.7 0 0 1 11.3 22.9 50.8 50.8 0 0 1-.1 20.2 51.6 51.6 0 0 1-3.6 11 50.2 50.2 0 0 1-6.6 10.5l-2.1 2.4zm-44.9 13a50.1 50.1 0 0 1-13.7-5 51.8 51.8 0 0 1-6.2-4 55.2 55.2 0 0 1-5.5-4.8 49.9 49.9 0 0 1-11-53.2c.4-1.1.9-2.1 1.3-3.1l.6-1.3a50.2 50.2 0 0 0-3.4 11 51.3 51.3 0 0 0 2.4 28.5c.4 1.1.9 2.2 1.4 3.2s1 2.1 1.6 3.1a50.6 50.6 0 0 0 3.7 5.8 51.5 51.5 0 0 0 9.2 9.5 50.9 50.9 0 0 0 10.7 6.5 51 51 0 0 0 28.7 3.9 50.3 50.3 0 0 1-19.8-.1zm61.9-39.9a50.2 50.2 0 0 1-5.5 14.7 48.4 48.4 0 0 1-5.8 8.3l-1.8 2-.6.7-.7.6-1.9 1.7h.2l2.3-2.4 2.1-2.5A51.3 51.3 0 0 0 98.9 74a51.4 51.4 0 0 0 3.2-31.6 49.6 49.6 0 0 0-2.5-8.2 49.4 49.4 0 0 0-3.1-6.5 48.7 48.7 0 0 0-5.9-8.3l-1.8-2-.6-.7-.7-.6-2-1.8A49.9 49.9 0 0 0 77.3 8a49.3 49.3 0 0 0-6.5-3.2 49.8 49.8 0 0 0-8.2-2.6A52.2 52.2 0 0 0 49.9 1a50.8 50.8 0 0 1 22.7 3.2l3.2 1.3 3.1 1.6a50.1 50.1 0 0 1 5.7 3.7l2.6 2.1 1.2 1.1 1.2 1.1 2.3 2.3 2.1 2.4a50.4 50.4 0 0 1 6.5 10.5 51.6 51.6 0 0 1 3.6 11 51.1 51.1 0 0 1 0 20.3z"/></g><g id="SvgjsG5150" featureKey="symbolFeature-0" transform="matrix(1.2206306749101068,0,0,1.2206306749101068,94.72746397806348,52.128462762242286)" fill="#fff"><path xmlns="http://www.w3.org/2000/svg" d="M69.974,34.035v3.929c6.803,5.711,11.137,14.275,11.137,23.833c0,10.928-5.665,20.556-14.211,26.105V59.087  l-9.219-5.079v37.938c-1.005,0.256-2.03,0.463-3.071,0.618v-58.51l-9.217-5.082v63.591c-1.042-0.155-2.067-0.362-3.073-0.618V9.071  l-9.217-5.08v83.912c-8.547-5.55-14.211-15.179-14.211-26.106c0-9.558,4.333-18.122,11.138-23.833v-3.929  c-8.619,6.218-14.241,16.345-14.241,27.762c0,18.864,15.348,34.212,34.212,34.212c18.865,0,34.213-15.348,34.213-34.212  C84.213,50.38,78.591,40.253,69.974,34.035z"/></g><g id="SvgjsG5151" featureKey="nameFeature-0" transform="matrix(1.2105071935742047,0,0,1.2105071935742047,53.57898561285159,179.80014602149382)" fill="#fff"><path d="M2 40 l0 -32 l4 0 l0 12.68 l4 -12.68 l4 0 l-4.8 15.2 l4.8 16.8 l-4 0 l-4 -14 l0 14 l-4 0 z M16.9 40 l0 -32 l4 0 l0 32 l-4 0 z M25 23.16 c0 -11.16 0 -15.56 6 -15.56 c4.56 0 5.64 2.52 5.92 8.56 l-3.72 0 c-0.16 -4.36 -0.6 -5.36 -2.2 -5.36 c-2.24 0 -2.24 1.96 -2.24 12.36 c0 11.56 0 13.24 2.24 13.24 c2.12 0 2.24 -1.52 2.24 -10 l-2.64 0 l0 -3.2 l6.4 0 l0 1.56 c0 11.2 0 15.64 -6 15.64 s-6 -4.44 -6 -17.24 z M40.7 40 l0 -16.8 c0 -11.16 0 -15.56 6 -15.56 s6 4.4 6 15.56 l0 16.8 l-4 0 l0 -9.2 l-4 0 l0 9.2 l-4 0 z M44.7 27.6 l4 0 l0 -4.4 c0 -10.4 0 -12.36 -2 -12.36 s-2 1.96 -2 12.36 l0 4.4 z M57.2 40 l0 -32 l4 0 l0 28 l5.2 0 l0 4 l-9.2 0 z M69.1 23.16 l0 -15.16 l4 0 l0 15.16 c0 11.56 0 13.24 2 13.24 s2 -1.68 2 -13.24 l0 -15.16 l4 0 l0 15.16 c0 12.8 0 17.24 -6 17.24 s-6 -4.44 -6 -17.24 z M84.2 40 l4 -16.08 l-3.6 -15.92 l4 0 l1.6 11.2 l0.4 0 l1.6 -11.2 l4 0 l-3.6 14.84 l4 17.16 l-4 0 l-2 -11.32 l-0.4 0 l-2 11.32 l-4 0 z M99.9 40 l0 -32 l9.2 0 l0 3.2 l-5.2 0 l0 10.4 l4.4 0 l0 3.2 l-4.4 0 l0 11.2 l5.2 0 l0 4 l-9.2 0 z M112.4 37.96 c0 -1.52 0.52 -2.04 2.04 -2.04 s2.04 0.52 2.04 2.04 s-0.52 2.04 -2.04 2.04 s-2.04 -0.52 -2.04 -2.04 z M120.58 23.16 c0 -11.16 0 -15.56 5.6 -15.56 c4.12 0 5.24 2.52 5.52 8.56 l-3.72 0 c-0.16 -4.36 -0.6 -5.36 -1.8 -5.36 c-1.84 0 -1.84 1.96 -1.84 12.36 c0 11.56 0 13.24 1.84 13.24 c1.32 0 1.72 -1 1.8 -6.16 l3.76 0 c-0.24 7.4 -1.24 10.16 -5.56 10.16 c-5.6 0 -5.6 -4.44 -5.6 -17.24 z M134.64 23.16 c0 -11.16 0.24 -15.56 6.24 -15.56 s6.24 4.4 6.24 15.56 c0 12.8 -0.24 17.24 -6.24 17.24 s-6.24 -4.44 -6.24 -17.24 z M138.64 23.16 c0 11.56 0 13.24 2.24 13.24 s2.24 -1.68 2.24 -13.24 c0 -10.4 0 -12.36 -2.24 -12.36 s-2.24 1.96 -2.24 12.36 z M151.22 40 l0 -32 l3.6 0 l4.2 20 l0.4 0 l4.2 -20 l3.6 0 l0 32 l-4 0 l0 -16 l-2.84 16 l-2.4 0 l-2.76 -16 l0 16 l-4 0 z"/></g><g id="SvgjsG5152" featureKey="sloganFeature-0" transform="matrix(0.78999919197642,0,0,0.78999919197642,90.40420202397664,234.8288025938122)" fill="#fff"><path d="M11.86 20 l0 -6.68 l-8.3 0 l0 6.68 l-1.54 0 l0 -14.58 l1.54 0 l0 6.46 l8.3 0 l0 -6.46 l1.54 0 l0 14.58 l-1.54 0 z M18.8005 20 l0 -14.58 l9.12 0 l0 1.42 l-7.58 0 l0 5.04 l6.94 0 l0 1.42 l-6.94 0 l0 5.28 l7.66 0 l0 1.42 l-9.2 0 z M43.20099999999999 20 l-1.86 0 l-4.32 -5.9 l-2.96 0 l0 5.9 l-1.54 0 l0 -14.58 l5.06 0 c1.72 0 3.1 0.48 3.9 1.28 s1.22 1.8 1.22 2.98 c0 2.46 -1.84 3.88 -4 4.16 z M34.061 6.859999999999999 l0 5.84 l3.38 0 c1.28 0 2.28 -0.36 2.86 -0.94 c0.56 -0.56 0.84 -1.26 0.84 -2.04 c0 -1.44 -0.88 -2.86 -3.66 -2.86 l-3.42 0 z M47.2815 20 l0 -14.58 l9.12 0 l0 1.42 l-7.58 0 l0 5.04 l6.94 0 l0 1.42 l-6.94 0 l0 5.28 l7.66 0 l0 1.42 l-9.2 0 z M69.1025 6.859999999999999 l0 5.24 l6.86 0 l0 1.4 l-6.86 0 l0 6.5 l-1.54 0 l0 -14.58 l9.04 0 l0 1.44 l-7.5 0 z M94.383 12.68 c0 1.38 -0.32 2.64 -0.94 3.78 c-0.64 1.14 -1.52 2.04 -2.64 2.7 c-1.14 0.66 -2.38 1 -3.78 1 c-1.02 0 -1.98 -0.2 -2.9 -0.58 c-0.9 -0.38 -1.68 -0.9 -2.32 -1.58 c-0.64 -0.64 -1.14 -1.42 -1.52 -2.34 c-0.36 -0.92 -0.56 -1.88 -0.56 -2.9 c0 -1.38 0.32 -2.64 0.96 -3.78 c0.62 -1.14 1.5 -2.06 2.64 -2.72 c1.12 -0.66 2.38 -0.98 3.76 -0.98 c1.02 0 1.98 0.18 2.9 0.56 c0.9 0.4 1.68 0.92 2.32 1.56 c0.64 0.68 1.16 1.46 1.52 2.36 c0.38 0.92 0.56 1.88 0.56 2.92 z M92.803 12.76 c0 -1.64 -0.6 -3.16 -1.6 -4.26 s-2.5 -1.8 -4.18 -1.8 c-1.08 0 -2.06 0.28 -2.94 0.8 c-0.88 0.56 -1.56 1.28 -2.04 2.18 c-0.48 0.92 -0.72 1.92 -0.72 3 c0 1.62 0.6 3.16 1.6 4.24 c1 1.1 2.5 1.8 4.16 1.8 c1.08 0 2.06 -0.28 2.94 -0.82 c0.9 -0.52 1.58 -1.26 2.06 -2.16 s0.72 -1.9 0.72 -2.98 z M109.4435 20 l-1.86 0 l-4.32 -5.9 l-2.96 0 l0 5.9 l-1.54 0 l0 -14.58 l5.06 0 c1.72 0 3.1 0.48 3.9 1.28 s1.22 1.8 1.22 2.98 c0 2.46 -1.84 3.88 -4 4.16 z M100.3035 6.859999999999999 l0 5.84 l3.38 0 c1.28 0 2.28 -0.36 2.86 -0.94 c0.56 -0.56 0.84 -1.26 0.84 -2.04 c0 -1.44 -0.88 -2.86 -3.66 -2.86 l-3.42 0 z M124.9845 12.4 l4.66 -6.98 l1.74 0 l-5.64 8.42 l0 6.16 l-1.56 0 l0 -6.14 l-5.64 -8.44 l1.84 0 z M148.885 12.68 c0 1.38 -0.32 2.64 -0.94 3.78 c-0.64 1.14 -1.52 2.04 -2.64 2.7 c-1.14 0.66 -2.38 1 -3.78 1 c-1.02 0 -1.98 -0.2 -2.9 -0.58 c-0.9 -0.38 -1.68 -0.9 -2.32 -1.58 c-0.64 -0.64 -1.14 -1.42 -1.52 -2.34 c-0.36 -0.92 -0.56 -1.88 -0.56 -2.9 c0 -1.38 0.32 -2.64 0.96 -3.78 c0.62 -1.14 1.5 -2.06 2.64 -2.72 c1.12 -0.66 2.38 -0.98 3.76 -0.98 c1.02 0 1.98 0.18 2.9 0.56 c0.9 0.4 1.68 0.92 2.32 1.56 c0.64 0.68 1.16 1.46 1.52 2.36 c0.38 0.92 0.56 1.88 0.56 2.92 z M147.305 12.76 c0 -1.64 -0.6 -3.16 -1.6 -4.26 s-2.5 -1.8 -4.18 -1.8 c-1.08 0 -2.06 0.28 -2.94 0.8 c-0.88 0.56 -1.56 1.28 -2.04 2.18 c-0.48 0.92 -0.72 1.92 -0.72 3 c0 1.62 0.6 3.16 1.6 4.24 c1 1.1 2.5 1.8 4.16 1.8 c1.08 0 2.06 -0.28 2.94 -0.82 c0.9 -0.52 1.58 -1.26 2.06 -2.16 s0.72 -1.9 0.72 -2.98 z M162.50549999999998 5.42 l1.54 0 l0 8.88 c0 1.84 -0.5 3.28 -1.44 4.3 c-0.96 1.02 -2.32 1.54 -4.06 1.54 c-1.72 0 -3.08 -0.52 -4.02 -1.56 c-0.96 -1.04 -1.44 -2.42 -1.44 -4.18 l0 -8.98 l1.52 0 l0 8.9 c0 1.54 0.44 2.72 1.16 3.38 c0.74 0.68 1.68 1 2.86 1 c1.24 0 2.2 -0.36 2.88 -1.12 c0.66 -0.76 1 -1.8 1 -3.18 l0 -8.98 z"/></g>
			</g>
		</svg>
	